<svg version="1.1" id="Layer_1" xmlns="http://www.w3.org/2000/svg" xmlns:xlink="http://www.w3.org/1999/xlink" x="0px" y="0px"
	 width="30px" height="25px" viewBox="0 0 896 896" enable-background="new 0 0 896 896" xml:space="preserve">
<path fill="#000000" opacity="1.000000" stroke="none" 
	d="
M570.984314,168.002823 
	C571.748413,164.443924 573.192139,161.337357 576.718811,159.706650 
	C580.882080,157.781570 584.149658,159.984467 583.940491,164.539230 
	C583.673279,170.361069 586.492493,173.204559 592.313416,172.842285 
	C597.336731,172.529648 601.955444,173.334961 605.646851,177.115219 
	C611.911621,183.530762 609.880859,192.078491 601.382080,194.861038 
	C599.809631,195.375854 598.144714,195.719650 596.497559,195.870636 
	C593.380493,196.156326 592.128540,197.777008 592.285767,200.832748 
	C592.474548,204.503067 592.166382,208.132690 591.340515,211.743469 
	C588.743896,223.096039 580.472412,228.049225 569.465820,224.553726 
	C567.682434,223.987366 566.757690,224.302475 565.671204,225.668152 
	C561.419495,231.012482 557.046204,236.259903 552.775757,241.589584 
	C550.942322,243.877823 550.057312,246.514053 550.320435,249.501053 
	C550.787231,254.800171 550.980835,260.134888 551.710754,265.396149 
	C552.504578,271.118164 551.018005,275.778961 546.996704,279.945068 
	C531.655396,295.838745 514.896729,310.096008 496.254822,321.874969 
	C484.728058,329.158173 479.959381,340.876099 473.728516,351.772980 
	C472.742523,353.497253 472.990570,355.734467 473.816681,357.618866 
	C476.069489,362.757629 479.514679,367.020355 484.002472,370.352753 
	C488.050476,373.358582 492.421021,372.286591 496.919464,371.283600 
	C506.802887,369.079956 513.467773,375.926392 511.684143,385.983551 
	C510.626526,391.947144 507.871429,396.927643 503.749298,401.247284 
	C503.519196,401.488403 503.285980,401.726715 503.048523,401.960541 
	C495.231171,409.657410 495.349091,409.572998 501.681183,418.439789 
	C516.899109,439.749329 529.600708,462.655701 543.497986,484.803375 
	C553.500122,500.743439 564.013550,516.429138 571.803101,533.627991 
	C576.814514,544.692749 580.322754,556.492920 585.914001,567.229614 
	C598.795837,591.966248 609.917969,617.370361 618.434265,643.923462 
	C621.535645,653.592957 624.312988,663.322876 625.453796,673.463257 
	C625.928101,677.679626 627.531738,681.476135 630.419373,684.702820 
	C634.861877,689.666870 636.688293,695.468567 636.347168,702.167847 
	C635.131592,726.043152 636.431824,749.725037 642.318909,773.014038 
	C645.056030,783.842407 648.490479,794.443298 652.716125,804.777283 
	C655.832703,812.398804 659.965881,819.434204 665.863525,825.259766 
	C677.131409,836.390198 679.866455,850.569885 680.244812,865.515015 
	C680.375854,870.693115 677.540894,873.775208 672.337585,874.005188 
	C659.594543,874.568298 646.948059,873.667236 635.228699,868.037598 
	C622.646973,861.993652 615.769897,851.907349 614.603699,837.840271 
	C614.171997,832.631958 613.854797,827.204773 610.088989,822.361206 
	C606.352783,826.312256 604.101746,823.758728 601.886108,820.670105 
	C598.390442,815.797119 594.856445,810.949890 591.249023,806.159363 
	C587.282410,800.891846 586.878052,795.292236 588.936707,789.147339 
	C590.996399,782.999451 592.889648,776.775208 594.442566,770.482361 
	C597.732117,757.153259 595.046143,744.833984 587.977844,733.166504 
	C578.520447,717.555420 571.566711,700.840759 566.597595,683.261963 
	C562.881287,670.115356 559.209778,656.803162 551.424377,645.384033 
	C533.422729,618.980286 517.025940,591.304688 494.543518,568.282104 
	C480.896362,554.307129 464.106781,545.141846 444.888458,540.895569 
	C433.877441,538.462646 424.409271,540.887207 416.117981,549.161865 
	C397.600647,567.641968 384.056915,589.546143 371.543610,612.195862 
	C361.232483,630.859436 351.165863,649.658447 341.039978,668.423950 
	C335.944427,677.867126 328.897003,685.433411 319.890076,691.262268 
	C311.317596,696.809998 304.784546,703.579102 301.713226,714.050171 
	C298.082855,726.427185 287.752228,734.470398 279.218628,743.565796 
	C265.994934,757.660095 254.961578,773.190247 248.805847,791.758606 
	C244.925079,803.464661 245.344315,815.735046 244.445328,827.801086 
	C244.001160,833.762512 243.982086,839.771484 243.291306,845.727783 
	C242.784531,850.097534 241.037567,853.803955 236.877335,855.792419 
	C224.994431,861.472229 212.482956,863.256348 199.424255,861.755066 
	C193.023331,861.019226 189.774765,857.389893 188.491867,851.273071 
	C185.254105,835.835449 186.389969,820.500977 194.655273,807.297607 
	C206.764145,787.954407 214.758301,767.271729 220.544464,745.410217 
	C228.829010,714.109070 247.534424,688.655396 268.287872,664.845093 
	C289.195465,640.857971 301.222778,613.147766 307.674591,582.468384 
	C312.228821,560.812195 314.648834,538.849060 317.626617,516.962891 
	C319.710754,501.644958 321.816162,486.305603 325.827148,471.367157 
	C327.438446,465.366058 326.072052,461.196594 321.804901,457.082977 
	C314.523468,450.063538 308.754669,441.900055 305.555359,432.206757 
	C300.297333,416.275604 301.086578,401.031219 311.540039,387.182861 
	C313.149353,385.050903 313.760620,383.184021 312.193420,380.891876 
	C312.008331,380.621246 311.885437,380.297546 311.783264,379.982330 
	C308.454041,369.714661 301.837097,364.178192 290.971344,361.236816 
	C266.792786,354.691650 243.932861,344.663422 222.431931,331.506256 
	C212.873795,325.657318 210.138733,318.607391 211.164032,307.463654 
	C214.681152,269.237305 226.384552,233.314529 239.629089,197.695419 
	C245.950867,180.694016 257.015381,169.209961 275.249420,165.406235 
	C282.181549,163.960159 288.392029,166.506866 294.750488,168.370697 
	C299.059814,169.633865 303.293823,171.166168 307.629242,172.324692 
	C312.334747,173.582108 316.317322,172.189743 318.818085,167.933334 
	C322.697906,161.329697 326.448853,154.643539 330.022919,147.870193 
	C331.595428,144.890060 331.827209,141.697571 330.936279,138.201767 
	C329.699707,133.349808 328.482086,128.478760 326.486603,123.927292 
	C312.162170,91.255043 327.088135,57.714672 365.627686,46.986794 
	C377.421143,43.703964 389.406952,41.559929 401.665924,43.220482 
	C424.557007,46.321228 438.285706,60.375866 445.203064,81.482780 
	C449.236298,93.789268 452.101471,106.481277 455.397705,119.024651 
	C456.220947,122.157310 458.447784,124.913010 458.105255,129.395111 
	C451.721497,126.328423 447.848480,121.540176 443.642487,115.593338 
	C443.447083,123.625191 445.860229,130.173569 448.437439,137.162170 
	C443.763123,137.475113 441.893219,133.924500 438.945404,132.195740 
	C437.261810,135.737610 440.582794,139.213898 438.491333,142.670807 
	C434.208954,142.836838 433.578552,138.394028 430.719513,136.270737 
	C428.392700,140.240250 429.060516,144.334320 429.789673,148.341354 
	C430.938751,154.656555 430.090118,156.205856 423.829102,157.093552 
	C421.411499,157.436325 420.637817,158.279495 420.189728,160.740326 
	C419.469482,164.695999 418.726288,168.886536 414.810364,171.391586 
	C413.207764,172.416824 413.388184,174.244247 413.228699,175.910370 
	C412.137665,187.309021 403.447021,192.021103 393.296844,186.740250 
	C392.262970,186.202347 391.303375,185.513245 390.248413,185.026352 
	C388.666473,184.296265 387.017914,182.484161 385.277771,184.084991 
	C383.481232,185.737732 382.969757,188.065964 383.733643,190.528305 
	C385.581024,196.483383 389.364258,200.668991 395.199921,202.888046 
	C399.402405,204.486084 403.699493,205.838745 407.883789,207.480759 
	C421.875092,212.971313 428.999268,224.800201 427.461700,239.793777 
	C426.165070,252.437668 429.460266,264.530731 431.971436,276.708496 
	C432.410950,278.839905 433.547150,280.767670 435.080139,282.345856 
	C439.943512,287.352570 441.370972,293.507996 441.332550,300.233734 
	C441.315521,303.214447 441.157562,306.191803 442.004181,309.160583 
	C443.526855,314.500092 445.044922,315.804443 450.605560,314.758972 
	C462.049683,312.607208 472.402527,309.139221 479.991791,298.845337 
	C489.462128,286.000061 500.785675,274.559875 510.285736,261.660034 
	C512.082703,259.219971 513.009888,257.260468 510.752838,254.691696 
	C510.152069,254.007996 509.539856,252.518524 509.873108,251.958405 
	C512.650024,247.291000 510.137573,240.761383 515.204712,236.951721 
	C516.567688,235.927002 516.431091,234.359253 516.691162,232.881927 
	C517.502380,228.273453 520.953064,226.403122 524.549866,229.063782 
	C527.168152,231.000519 528.975525,230.607285 531.166016,228.902359 
	C531.948242,228.293533 532.875488,227.395142 533.718872,227.414215 
	C542.621155,227.615646 543.367676,218.426071 548.664917,214.487625 
	C550.532593,213.099014 548.949707,211.399597 547.707031,210.312744 
	C544.238281,207.278885 542.791931,203.891373 544.428101,199.223816 
	C545.426758,196.374725 543.471008,194.100357 540.901428,193.566040 
	C537.593872,192.878265 534.927734,191.894577 535.006897,188.137085 
	C535.088867,184.251709 537.377380,181.213455 541.012268,180.397186 
	C544.337830,179.650406 545.884338,178.114914 547.384338,175.169678 
	C549.544556,170.928101 553.610657,170.091263 558.209045,171.703918 
	C559.139954,167.470123 561.617615,164.776672 565.819275,164.029785 
	C568.361023,163.577942 569.877319,165.049408 570.775024,168.020996 
	C568.908875,173.097076 571.874329,175.690155 574.769958,177.771606 
	C577.070862,179.425644 578.913025,177.414902 580.490295,175.755997 
	C579.856018,173.812988 578.960571,172.383514 577.033447,172.369461 
	C573.905334,172.346649 572.282837,170.449249 570.984314,168.002823 
M262.306580,297.208862 
	C266.234833,299.778992 269.025146,304.046295 275.026520,305.645020 
	C272.964172,297.165588 270.039551,290.083618 265.373474,283.595703 
	C258.381348,289.295166 257.542999,292.637970 262.306580,297.208862 
M564.373291,177.525314 
	C562.459656,177.294632 560.545959,177.063965 558.705383,176.842102 
	C556.721375,180.753906 559.809082,182.354477 561.865662,183.873810 
	C564.580078,185.879105 566.230835,183.205215 568.183044,181.814911 
	C567.435120,179.933945 566.392700,178.695007 564.373291,177.525314 
M554.173462,185.830795 
	C553.335449,185.347519 552.538635,184.567612 551.650574,184.444122 
	C549.924866,184.204117 548.040100,183.758514 547.218323,186.291443 
	C546.534302,188.399567 547.311707,189.668457 548.730103,191.058273 
	C551.086487,193.367264 552.626892,191.039597 554.382263,190.212479 
	C556.659851,189.139252 555.932678,187.703598 554.173462,185.830795 
z"/>
</svg>