<svg version="1.1" id="Layer_1" xmlns="http://www.w3.org/2000/svg" xmlns:xlink="http://www.w3.org/1999/xlink" x="0px" y="0px"
	 width="30px" height="25px" viewBox="0 0 512 496" enable-background="new 0 0 512 496" xml:space="preserve">
<path fill="#000000" opacity="1.000000" stroke="none" 
	d="
M257.250000,497.000000 
	C254.573242,490.703766 254.756363,483.959808 253.805466,477.428467 
	C250.003403,451.313873 246.482956,425.157898 242.930832,399.007385 
	C239.111023,370.886383 235.379288,342.753387 231.593811,314.627716 
	C230.620224,307.394012 229.682816,300.153107 228.533554,292.946686 
	C228.130905,290.421906 228.748627,288.931091 231.070496,287.749329 
	C238.636353,283.898651 246.141968,279.926788 253.614929,275.897980 
	C256.077484,274.570343 258.282806,274.705811 260.687408,276.002594 
	C268.012970,279.953308 275.346375,283.895447 282.776123,287.643860 
	C285.339539,288.937103 285.823242,290.605743 285.448578,293.264404 
	C283.155151,309.537842 281.014893,325.832825 278.797455,342.117065 
	C275.639191,365.310638 272.468109,388.502472 269.284393,411.692566 
	C266.145935,434.552612 262.960785,457.406250 259.852020,480.270325 
	C259.136353,485.533813 258.648865,490.828308 258.028198,496.554260 
	C258.000000,497.000000 257.500000,497.000000 257.250000,497.000000 
z"/>
<path fill="#000000" opacity="1.000000" stroke="none" 
	d="
M359.977448,175.974640 
	C352.234009,183.577621 344.834717,191.027405 337.205505,198.233749 
	C334.586029,200.708023 333.818115,203.370178 334.397675,206.726593 
	C339.539368,236.502716 344.668762,266.280975 349.785339,296.061432 
	C350.311707,299.124939 350.730927,302.206909 351.202332,305.296539 
	C348.571259,306.229218 347.020264,304.674011 345.364655,303.807465 
	C317.622284,289.287598 289.846649,274.828888 262.242188,260.050568 
	C258.313782,257.947449 255.514313,258.159912 251.776825,260.145081 
	C224.126221,274.831512 196.366623,289.312744 168.636948,303.850220 
	C167.042526,304.686096 165.532471,305.806183 163.205231,305.695892 
	C162.548737,300.609619 164.256119,295.862823 165.062912,291.092102 
	C169.767868,263.271149 174.669510,235.483337 179.547882,207.691925 
	C180.263550,203.614899 179.316650,200.501007 176.167435,197.462265 
	C153.508728,175.598557 131.023590,153.554916 108.503891,131.547394 
	C107.361221,130.430695 105.691307,129.650620 105.573685,127.278122 
	C112.316261,125.187172 119.418846,124.792465 126.369400,123.747559 
	C148.376785,120.439095 170.419388,117.365105 192.446350,114.186447 
	C195.238342,113.783554 198.027390,112.874062 200.802063,112.933464 
	C207.612579,113.079285 210.898209,109.530655 213.731857,103.624832 
	C226.844070,76.296768 240.427948,49.194828 253.888168,22.034332 
	C254.664764,20.467308 254.997772,18.512957 256.912994,17.581448 
	C259.106720,18.385023 259.422455,20.574003 260.260162,22.264620 
	C274.159607,50.315666 288.097687,78.348534 301.759308,106.515366 
	C303.804962,110.732933 306.624023,112.141136 310.932648,112.738770 
	C335.276062,116.115364 359.587982,119.718987 383.910309,123.247772 
	C392.075012,124.432343 400.238678,125.624336 408.402802,126.812943 
	C408.599487,127.268188 408.796204,127.723434 408.992889,128.178680 
	C392.739075,144.027786 376.485260,159.876892 359.977448,175.974640 
M283.074768,137.398712 
	C272.752930,131.299973 261.929779,128.332031 249.708298,130.177231 
	C222.914886,134.222473 204.421036,161.264267 210.853424,187.645157 
	C216.981384,212.777481 240.545761,228.370850 266.145111,223.433136 
	C288.594025,219.103073 304.956329,199.774521 304.460175,175.785217 
	C304.132843,159.956772 296.882050,147.029694 283.074768,137.398712 
z"/>
<path fill="#000000" opacity="1.000000" stroke="none" 
	d="
M283.714081,195.571228 
	C275.016968,207.033783 263.708984,211.522522 250.120010,208.640701 
	C236.670914,205.788544 228.060730,197.095337 225.303055,183.608795 
	C222.698456,170.870880 226.407150,159.740372 236.783295,151.574463 
	C247.280212,143.313507 259.051941,142.158966 271.037598,147.826385 
	C282.696869,153.339523 288.757294,162.928802 289.360596,175.922989 
	C289.689667,183.010117 287.731506,189.383026 283.714081,195.571228 
z"/>
</svg>